<?xml version="1.0" standalone="no"?>
<!DOCTYPE svg PUBLIC "-//W3C//DTD SVG 20010904//EN"
 "http://www.w3.org/TR/2001/REC-SVG-20010904/DTD/svg10.dtd">
<svg version="1.0" xmlns="http://www.w3.org/2000/svg"
 width="1000.000000pt" height="1000.000000pt" viewBox="0 0 1000.000000 1000.000000"
 preserveAspectRatio="xMidYMid meet">
<metadata>
Created by potrace 1.14, written by Peter Selinger 2001-2017
</metadata>
<g transform="translate(0.000000,1000.000000) scale(0.100000,-0.100000)"
fill="#000000" stroke="none">
<path d="M1039 9846 c-2 -3 -22 -7 -44 -9 -45 -6 -142 -30 -195 -50 -253 -94
-468 -304 -574 -558 -19 -47 -38 -101 -41 -119 -3 -18 -8 -37 -11 -42 -3 -5
-9 -32 -12 -61 -9 -68 -9 -7948 0 -8008 30 -202 132 -403 282 -554 92 -93 235
-187 341 -226 58 -21 84 -29 120 -38 22 -6 54 -14 70 -18 17 -4 1817 -9 4000
-9 3372 -2 3982 0 4048 12 206 37 390 135 538 284 143 146 226 304 277 529 10
45 13 7983 2 8021 -5 19 -16 67 -25 105 -48 207 -211 441 -391 562 -117 80
-256 141 -354 158 -19 3 -60 10 -89 15 -53 10 -7933 15 -7942 6z"/>
</g>
</svg>
